<svg width="80" height="63" viewBox="0 0 80 63" fill="none" xmlns="http://www.w3.org/2000/svg">
<path d="M79.9346 50.9128H0V62.1598H79.9346V50.9128Z" fill="#E5E5E5"/>
<path d="M6.39128 47.9592H0.0522461V50.0377H6.39128V47.9592Z" fill="#F9E52D"/>
<path d="M13.7507 47.9592H7.41162V50.0377H13.7507V47.9592Z" fill="#EF294B"/>
<path d="M21.1105 47.9592H14.7715V50.0377H21.1105V47.9592Z" fill="#46DB21"/>
<path d="M28.4704 47.9592H22.1313V50.0377H28.4704V47.9592Z" fill="#3BF4EF"/>
<path d="M35.8298 47.9592H29.4907V50.0377H35.8298V47.9592Z" fill="#F4259C"/>
<path d="M43.1896 47.9592H36.8506V50.0377H43.1896V47.9592Z" fill="#F9E52D"/>
<path d="M50.549 47.9592H44.21V50.0377H50.549V47.9592Z" fill="#46DB21"/>
<path d="M57.9084 47.9592H51.5693V50.0377H57.9084V47.9592Z" fill="#F9E52D"/>
<path d="M65.2677 47.9592H58.9287V50.0377H65.2677V47.9592Z" fill="#F4259C"/>
<path d="M72.634 47.9592H66.2949V50.0377H72.634V47.9592Z" fill="#3BF4EF"/>
<path d="M79.9933 47.9592H73.6543V50.0377H79.9933V47.9592Z" fill="#46DB21"/>
<path d="M6.39128 45.1082H0.0522461V47.1866H6.39128V45.1082Z" fill="#46DB21"/>
<path d="M21.1105 45.1082H14.7715V47.1866H21.1105V45.1082Z" fill="#F4259C"/>
<path d="M28.4704 45.1082H22.1313V47.1866H28.4704V45.1082Z" fill="#F9E52D"/>
<path d="M35.8298 45.1082H29.4907V47.1866H35.8298V45.1082Z" fill="#46DB21"/>
<path d="M43.1896 45.1082H36.8506V47.1866H43.1896V45.1082Z" fill="#3BF4EF"/>
<path d="M50.549 45.1082H44.21V47.1866H50.549V45.1082Z" fill="#EF294B"/>
<path d="M65.2677 45.1082H58.9287V47.1866H65.2677V45.1082Z" fill="#46DB21"/>
<path d="M72.634 45.1082H66.2949V47.1866H72.634V45.1082Z" fill="#F9E52D"/>
<path d="M79.9933 45.1082H73.6543V47.1866H79.9933V45.1082Z" fill="#3BF4EF"/>
<path d="M6.39128 42.2571H0.0522461V44.3356H6.39128V42.2571Z" fill="#F4259C"/>
<path d="M28.4704 42.2571H22.1313V44.3356H28.4704V42.2571Z" fill="#EF294B"/>
<path d="M50.549 42.2571H44.21V44.3356H50.549V42.2571Z" fill="#46DB21"/>
<path d="M72.634 42.2571H66.2949V44.3356H72.634V42.2571Z" fill="#F4259C"/>
<path d="M8.58962 59.562H3.95801V53.5112H8.57654V54.7282H5.10937V55.9452H8.55691V57.1485H5.10937V58.3655H8.58962V59.5688V59.562Z" fill="#1C1C1C"/>
<path d="M22.1769 53.5041L19.8219 59.5548H18.6705L16.3809 53.5041H17.7088L19.2789 57.9686L20.9274 53.5041H22.1769Z" fill="#1C1C1C"/>
<path d="M34.7888 59.562H30.1572V53.5112H34.7758V54.7282H31.3086V55.9452H34.7561V57.1485H31.3086V58.3655H34.7888V59.5688V59.562Z" fill="#1C1C1C"/>
<path d="M48.7761 59.562H48.0631L44.1642 55.4529V59.562H42.9932V53.5112H43.9679L47.6313 57.4561V53.5112H48.7761V59.562Z" fill="#1C1C1C"/>
<path d="M62.6181 54.721H60.2958V59.5617H59.151V54.721H56.8286V53.5041H62.6181V54.721Z" fill="#1C1C1C"/>
<path d="M75.9702 58.3515C75.9702 58.7412 75.8721 59.0421 75.6693 59.2472C75.4665 59.4523 75.1787 59.5549 74.7993 59.5549H70.6583V58.3515H74.7993V57.1345H71.7311C71.3844 57.1345 71.1097 57.032 70.8938 56.8337C70.6845 56.6286 70.5732 56.3278 70.5732 55.9312V54.7142C70.5732 54.3314 70.6779 54.0305 70.8873 53.8186C71.0966 53.6066 71.3779 53.4972 71.7246 53.4972H75.6824V54.7142H71.7246V55.9312H74.7927C75.146 55.9312 75.4338 56.0406 75.6432 56.2594C75.8525 56.4782 75.9637 56.7722 75.9637 57.1345V58.3515H75.9702Z" fill="#1C1C1C"/>
<path d="M0.0786133 8.30434V15.8866H2.98318V9.82216H11.6315V8.30434H0.0786133Z" fill="white"/>
<path d="M25.461 12.8783V9.82216H34.1093V8.30434H22.563V15.8866H34.1682V12.8715H25.461V12.8783Z" fill="white"/>
<path d="M48.377 12.8783V9.82216H57.0253V8.30434H45.479V15.8866H57.0842V12.8715H48.377V12.8783Z" fill="white"/>
<path d="M71.3124 12.8783V8.31115H68.3882V15.8934H79.9934V12.8783H71.3124Z" fill="white"/>
<path d="M0.0395508 29.0684V36.6918H2.94412V30.5863H11.6317V29.0684H0.0395508Z" fill="white"/>
<path d="M29.2946 30.5863H32.8533C34.2271 30.5863 35.1364 30.0872 35.5355 29.0684H21.7061V36.6918H24.6303V30.5863H25.0686L31.9048 36.6918H36.2943L29.3011 30.5863H29.2946Z" fill="white"/>
<path d="M49.1549 33.6629V30.5863H57.8424V29.0684H46.2568V36.6918H57.9209V33.6561H49.1549V33.6629Z" fill="white"/>
<path d="M71.254 33.6629V30.5863H79.9415V29.0684H68.356V36.6918H80.0004V33.6561H71.254V33.6629Z" fill="white"/>
<path d="M71.3124 0.722054H68.3882V8.30434H71.3124V0.722054Z" fill="#DBDBDB"/>
<path d="M22.563 0.722054H34.1486V3.7577H25.461V6.81387H34.1093V8.30434H22.563V0.722054Z" fill="#DBDBDB"/>
<path d="M0.0786133 0.722054H11.6904V3.7577H2.98318V6.81387H11.6315V8.30434H0.0786133V0.722054Z" fill="#DBDBDB"/>
<path d="M45.4722 0.722054H57.0643V3.7577H48.3767V6.81387H57.025V8.30434H45.4722V0.722054Z" fill="#DBDBDB"/>
<path d="M46.251 21.4451H57.8954V24.5013H49.1555V27.5575H57.8366V29.0684H46.251V21.4451Z" fill="#DBDBDB"/>
<path d="M0.0395508 21.4451H11.7102V24.5013H2.94412V27.5575H11.6317V29.0684H0.0395508V21.4451Z" fill="#CCCCCC"/>
<path d="M71.2532 24.5013V27.5575H79.9407V29.0684H68.3486V21.4451H79.98V24.5013H71.2532Z" fill="#DBDBDB"/>
<path d="M35.5551 23.3185C35.4177 22.9425 35.1953 22.6143 34.9205 22.3408C34.6392 22.0742 34.3449 21.8417 33.9851 21.6776C33.6253 21.534 33.2524 21.452 32.8533 21.452H21.7061V24.5081H32.8533V27.6874H21.7061V29.0821H35.5355C35.7121 28.6651 35.7906 28.166 35.7906 27.5643V24.5081C35.7906 24.0911 35.7121 23.7014 35.5551 23.3253V23.3185Z" fill="#DBDBDB"/>
</svg>
