<svg width="329" height="326" viewBox="0 0 329 326" fill="none" xmlns="http://www.w3.org/2000/svg">
<path d="M326.414 213.679C318.414 236.538 305.336 258.015 287.155 276.356C221.821 342.169 115.553 342.567 49.6602 277.233C-16.1527 211.978 -16.6312 105.63 48.7033 39.8173C66.8842 21.4769 88.2814 8.16016 110.954 0C110.715 0.318964 110.476 0.637928 110.237 0.956892C101.997 6.53876 94.2354 12.918 87.0587 20.1745C26.9074 80.8308 27.3858 178.779 87.9358 238.931C148.592 299.002 246.541 298.683 306.692 238.053C314.214 230.451 320.753 222.318 326.228 213.759C329.87 208.044 329.923 208.018 326.388 213.679H326.414Z" fill="#E5E5E5"/>
<path d="M326.255 213.759C320.752 222.318 314.214 230.478 306.718 238.053C246.567 298.71 148.592 299.029 87.962 238.931C27.3855 178.779 26.907 80.8042 87.0849 20.1745C94.2615 12.9181 102.023 6.53878 110.263 0.956909C66.2459 61.1082 71.5885 146.139 126.158 200.256C180.913 254.533 266.422 259.052 326.255 213.732V213.759Z" fill="white"/>
<path d="M51.0964 196.482C60.3448 196.482 67.842 188.984 67.842 179.736C67.842 170.488 60.3448 162.99 51.0964 162.99C41.8481 162.99 34.3508 170.488 34.3508 179.736C34.3508 188.984 41.8481 196.482 51.0964 196.482Z" fill="url(#paint0_linear_83_1438)"/>
<path d="M51.0957 197.067C41.5534 197.067 33.7653 189.305 33.7653 179.736C33.7653 170.167 41.5268 162.406 51.0957 162.406C60.6646 162.406 68.4261 170.167 68.4261 179.736C68.4261 189.305 60.6646 197.067 51.0957 197.067ZM51.0957 163.575C42.1913 163.575 34.9349 170.832 34.9349 179.736C34.9349 188.641 42.1913 195.897 51.0957 195.897C60.0001 195.897 67.2565 188.641 67.2565 179.736C67.2565 170.832 60.0001 163.575 51.0957 163.575Z" fill="white"/>
<path d="M155.61 295.626C162.142 295.626 167.438 290.331 167.438 283.798C167.438 277.266 162.142 271.97 155.61 271.97C149.077 271.97 143.782 277.266 143.782 283.798C143.782 290.331 149.077 295.626 155.61 295.626Z" fill="url(#paint1_linear_83_1438)"/>
<path d="M155.609 296.211C148.752 296.211 143.196 290.629 143.196 283.798C143.196 276.967 148.778 271.385 155.609 271.385C162.44 271.385 168.022 276.967 168.022 283.798C168.022 290.629 162.44 296.211 155.609 296.211ZM155.609 272.528C149.39 272.528 144.339 277.578 144.339 283.798C144.339 290.018 149.39 295.068 155.609 295.068C161.829 295.068 166.879 290.018 166.879 283.798C166.879 277.578 161.829 272.528 155.609 272.528Z" fill="white"/>
<path d="M45.3014 121.126C51.6431 121.126 56.7841 115.985 56.7841 109.644C56.7841 103.302 51.6431 98.161 45.3014 98.161C38.9597 98.161 33.8187 103.302 33.8187 109.644C33.8187 115.985 38.9597 121.126 45.3014 121.126Z" fill="url(#paint2_linear_83_1438)"/>
<path d="M45.3013 121.685C38.6562 121.685 33.2604 116.289 33.2604 109.617C33.2604 102.946 38.6562 97.5763 45.3013 97.5763C51.9464 97.5763 57.3688 102.972 57.3688 109.617C57.3688 116.262 51.973 121.685 45.3013 121.685ZM45.3013 98.7458C39.2942 98.7458 34.4034 103.637 34.4034 109.644C34.4034 115.651 39.2942 120.542 45.3013 120.542C51.3085 120.542 56.1993 115.651 56.1993 109.644C56.1993 103.637 51.3085 98.7458 45.3013 98.7458Z" fill="white"/>
<path d="M67.8409 263.039C71.1732 263.039 73.8746 260.337 73.8746 257.005C73.8746 253.673 71.1732 250.971 67.8409 250.971C64.5085 250.971 61.8071 253.673 61.8071 257.005C61.8071 260.337 64.5085 263.039 67.8409 263.039Z" fill="url(#paint3_linear_83_1438)"/>
<path d="M142.399 251.476C145.732 251.476 148.433 248.775 148.433 245.443C148.433 242.11 145.732 239.409 142.399 239.409C139.067 239.409 136.366 242.11 136.366 245.443C136.366 248.775 139.067 251.476 142.399 251.476Z" fill="url(#paint4_linear_83_1438)"/>
<path d="M142.293 142.178C145.625 142.178 148.327 139.477 148.327 136.144C148.327 132.812 145.625 130.111 142.293 130.111C138.961 130.111 136.259 132.812 136.259 136.144C136.259 139.477 138.961 142.178 142.293 142.178Z" fill="white"/>
<path d="M186.225 112.732C186.759 109.443 184.526 106.343 181.236 105.809C177.947 105.275 174.848 107.509 174.314 110.798C173.78 114.088 176.014 117.187 179.303 117.721C182.592 118.255 185.692 116.021 186.225 112.732Z" fill="white"/>
<path d="M263.764 152.438C267.097 152.438 269.798 149.737 269.798 146.404C269.798 143.072 267.097 140.371 263.764 140.371C260.432 140.371 257.73 143.072 257.73 146.404C257.73 149.737 260.432 152.438 263.764 152.438Z" fill="white"/>
<path d="M89.5044 211.473C94.4516 211.473 98.462 207.463 98.462 202.515C98.462 197.568 94.4516 193.558 89.5044 193.558C84.5573 193.558 80.5469 197.568 80.5469 202.515C80.5469 207.463 84.5573 211.473 89.5044 211.473Z" fill="url(#paint5_linear_83_1438)"/>
<path d="M17.8437 158.047C20.0604 158.047 21.8573 156.25 21.8573 154.033C21.8573 151.816 20.0604 150.019 17.8437 150.019C15.627 150.019 13.8301 151.816 13.8301 154.033C13.8301 156.25 15.627 158.047 17.8437 158.047Z" fill="url(#paint6_linear_83_1438)"/>
<path d="M65.29 63.0219C67.5067 63.0219 69.3036 61.2249 69.3036 59.0083C69.3036 56.7916 67.5067 54.9946 65.29 54.9946C63.0733 54.9946 61.2764 56.7916 61.2764 59.0083C61.2764 61.2249 63.0733 63.0219 65.29 63.0219Z" fill="url(#paint7_linear_83_1438)"/>
<path d="M210.179 267.797C212.395 267.797 214.192 266 214.192 263.783C214.192 261.566 212.395 259.77 210.179 259.77C207.962 259.77 206.165 261.566 206.165 263.783C206.165 266 207.962 267.797 210.179 267.797Z" fill="url(#paint8_linear_83_1438)"/>
<path d="M202.79 173.011C205.007 173.011 206.804 171.214 206.804 168.998C206.804 166.781 205.007 164.984 202.79 164.984C200.573 164.984 198.776 166.781 198.776 168.998C198.776 171.214 200.573 173.011 202.79 173.011Z" fill="white"/>
<path d="M297.097 183.75C299.313 183.75 301.11 181.953 301.11 179.736C301.11 177.52 299.313 175.723 297.097 175.723C294.88 175.723 293.083 177.52 293.083 179.736C293.083 181.953 294.88 183.75 297.097 183.75Z" fill="white"/>
<path d="M152.765 179.736C154.981 179.736 156.778 177.939 156.778 175.722C156.778 173.506 154.981 171.709 152.765 171.709C150.548 171.709 148.751 173.506 148.751 175.722C148.751 177.939 150.548 179.736 152.765 179.736Z" fill="white"/>
<path d="M250.076 208.921C252.293 208.921 254.09 207.124 254.09 204.908C254.09 202.691 252.293 200.894 250.076 200.894C247.859 200.894 246.062 202.691 246.062 204.908C246.062 207.124 247.859 208.921 250.076 208.921Z" fill="white"/>
<path d="M207.335 220.909C208.906 220.909 210.179 219.636 210.179 218.065C210.179 216.494 208.906 215.221 207.335 215.221C205.764 215.221 204.491 216.494 204.491 218.065C204.491 219.636 205.764 220.909 207.335 220.909Z" fill="white"/>
<path d="M184.237 30.3547C185.807 30.3547 187.081 29.0814 187.081 27.5106C187.081 25.9398 185.807 24.6665 184.237 24.6665C182.666 24.6665 181.393 25.9398 181.393 27.5106C181.393 29.0814 182.666 30.3547 184.237 30.3547Z" fill="white"/>
<path d="M110.715 92.4198C112.286 92.4198 113.559 91.1464 113.559 89.5757C113.559 88.0049 112.286 86.7316 110.715 86.7316C109.144 86.7316 107.871 88.0049 107.871 89.5757C107.871 91.1464 109.144 92.4198 110.715 92.4198Z" fill="white"/>
<path d="M238.833 103.583C240.404 103.583 241.677 102.31 241.677 100.739C241.677 99.1686 240.404 97.8953 238.833 97.8953C237.262 97.8953 235.989 99.1686 235.989 100.739C235.989 102.31 237.262 103.583 238.833 103.583Z" fill="white"/>
<path d="M247.232 45.7713C248.671 45.7713 249.837 44.605 249.837 43.1664C249.837 41.7278 248.671 40.5615 247.232 40.5615C245.794 40.5615 244.627 41.7278 244.627 43.1664C244.627 44.605 245.794 45.7713 247.232 45.7713Z" fill="white"/>
<path d="M117.36 47.1801C119.577 47.1801 121.374 45.3831 121.374 43.1665C121.374 40.9498 119.577 39.1528 117.36 39.1528C115.144 39.1528 113.347 40.9498 113.347 43.1665C113.347 45.3831 115.144 47.1801 117.36 47.1801Z" fill="white"/>
<path d="M210.178 312.239C214.347 312.239 217.727 308.859 217.727 304.69C217.727 300.521 214.347 297.141 210.178 297.141C206.009 297.141 202.629 300.521 202.629 304.69C202.629 308.859 206.009 312.239 210.178 312.239Z" fill="url(#paint9_linear_83_1438)"/>
<path d="M67.8409 263.039C71.1732 263.039 73.8746 260.337 73.8746 257.005C73.8746 253.673 71.1732 250.971 67.8409 250.971C64.5085 250.971 61.8071 253.673 61.8071 257.005C61.8071 260.337 64.5085 263.039 67.8409 263.039Z" fill="url(#paint10_linear_83_1438)"/>
<path d="M142.399 251.476C145.732 251.476 148.433 248.775 148.433 245.443C148.433 242.11 145.732 239.409 142.399 239.409C139.067 239.409 136.366 242.11 136.366 245.443C136.366 248.775 139.067 251.476 142.399 251.476Z" fill="url(#paint11_linear_83_1438)"/>
<path d="M263.764 152.438C267.097 152.438 269.798 149.737 269.798 146.404C269.798 143.072 267.097 140.371 263.764 140.371C260.432 140.371 257.73 143.072 257.73 146.404C257.73 149.737 260.432 152.438 263.764 152.438Z" fill="white"/>
<path d="M89.5044 211.473C94.4516 211.473 98.462 207.463 98.462 202.515C98.462 197.568 94.4516 193.558 89.5044 193.558C84.5573 193.558 80.5469 197.568 80.5469 202.515C80.5469 207.463 84.5573 211.473 89.5044 211.473Z" fill="url(#paint12_linear_83_1438)"/>
<path d="M17.8437 158.047C20.0604 158.047 21.8573 156.25 21.8573 154.033C21.8573 151.816 20.0604 150.019 17.8437 150.019C15.627 150.019 13.8301 151.816 13.8301 154.033C13.8301 156.25 15.627 158.047 17.8437 158.047Z" fill="url(#paint13_linear_83_1438)"/>
<path d="M65.29 63.0219C67.5067 63.0219 69.3036 61.2249 69.3036 59.0083C69.3036 56.7916 67.5067 54.9946 65.29 54.9946C63.0733 54.9946 61.2764 56.7916 61.2764 59.0083C61.2764 61.2249 63.0733 63.0219 65.29 63.0219Z" fill="url(#paint14_linear_83_1438)"/>
<path d="M210.179 267.797C212.395 267.797 214.192 266 214.192 263.783C214.192 261.566 212.395 259.77 210.179 259.77C207.962 259.77 206.165 261.566 206.165 263.783C206.165 266 207.962 267.797 210.179 267.797Z" fill="url(#paint15_linear_83_1438)"/>
<path d="M202.79 173.011C205.007 173.011 206.804 171.214 206.804 168.998C206.804 166.781 205.007 164.984 202.79 164.984C200.573 164.984 198.776 166.781 198.776 168.998C198.776 171.214 200.573 173.011 202.79 173.011Z" fill="white"/>
<path d="M297.097 183.75C299.313 183.75 301.11 181.953 301.11 179.736C301.11 177.52 299.313 175.723 297.097 175.723C294.88 175.723 293.083 177.52 293.083 179.736C293.083 181.953 294.88 183.75 297.097 183.75Z" fill="white"/>
<path d="M152.765 179.736C154.981 179.736 156.778 177.939 156.778 175.722C156.778 173.506 154.981 171.709 152.765 171.709C150.548 171.709 148.751 173.506 148.751 175.722C148.751 177.939 150.548 179.736 152.765 179.736Z" fill="white"/>
<path d="M250.076 208.921C252.293 208.921 254.09 207.124 254.09 204.908C254.09 202.691 252.293 200.894 250.076 200.894C247.859 200.894 246.062 202.691 246.062 204.908C246.062 207.124 247.859 208.921 250.076 208.921Z" fill="white"/>
<path d="M207.335 220.909C208.906 220.909 210.179 219.636 210.179 218.065C210.179 216.494 208.906 215.221 207.335 215.221C205.764 215.221 204.491 216.494 204.491 218.065C204.491 219.636 205.764 220.909 207.335 220.909Z" fill="white"/>
<path d="M184.237 30.3547C185.807 30.3547 187.081 29.0814 187.081 27.5106C187.081 25.9398 185.807 24.6665 184.237 24.6665C182.666 24.6665 181.393 25.9398 181.393 27.5106C181.393 29.0814 182.666 30.3547 184.237 30.3547Z" fill="white"/>
<path d="M110.715 92.4198C112.286 92.4198 113.559 91.1464 113.559 89.5757C113.559 88.0049 112.286 86.7316 110.715 86.7316C109.144 86.7316 107.871 88.0049 107.871 89.5757C107.871 91.1464 109.144 92.4198 110.715 92.4198Z" fill="white"/>
<path d="M238.833 103.583C240.404 103.583 241.677 102.31 241.677 100.739C241.677 99.1686 240.404 97.8953 238.833 97.8953C237.262 97.8953 235.989 99.1686 235.989 100.739C235.989 102.31 237.262 103.583 238.833 103.583Z" fill="white"/>
<path d="M247.232 45.7713C248.671 45.7713 249.837 44.605 249.837 43.1664C249.837 41.7278 248.671 40.5615 247.232 40.5615C245.794 40.5615 244.627 41.7278 244.627 43.1664C244.627 44.605 245.794 45.7713 247.232 45.7713Z" fill="white"/>
<path d="M117.36 47.1801C119.577 47.1801 121.374 45.3831 121.374 43.1665C121.374 40.9498 119.577 39.1528 117.36 39.1528C115.144 39.1528 113.347 40.9498 113.347 43.1665C113.347 45.3831 115.144 47.1801 117.36 47.1801Z" fill="white"/>
<path d="M210.178 312.239C214.347 312.239 217.727 308.859 217.727 304.69C217.727 300.521 214.347 297.141 210.178 297.141C206.009 297.141 202.629 300.521 202.629 304.69C202.629 308.859 206.009 312.239 210.178 312.239Z" fill="url(#paint16_linear_83_1438)"/>
<path d="M142.293 142.178C145.626 142.178 148.327 139.477 148.327 136.145C148.327 132.812 145.626 130.111 142.293 130.111C138.961 130.111 136.26 132.812 136.26 136.145C136.26 139.477 138.961 142.178 142.293 142.178Z" fill="white"/>
<path d="M186.226 112.732C186.76 109.443 184.526 106.344 181.237 105.81C177.948 105.276 174.848 107.509 174.314 110.799C173.78 114.088 176.014 117.187 179.303 117.721C182.593 118.255 185.692 116.021 186.226 112.732Z" fill="white"/>
<path d="M148.326 136.145L145.907 133.699V93.3768C145.907 92.9515 146.146 92.5528 146.519 92.3401L184.475 70.0127C184.847 69.7734 185.326 69.7734 185.698 70.0127C186.07 70.2253 186.309 70.624 186.309 71.0493V112.222L183.89 109.059V73.1757L148.353 94.0679V136.145H148.326Z" fill="white"/>
<defs>
<linearGradient id="paint0_linear_83_1438" x1="35.5735" y1="188.933" x2="68.4002" y2="169.503" gradientUnits="userSpaceOnUse">
<stop stop-color="white"/>
<stop offset="1" stop-color="#E5E5E5"/>
</linearGradient>
<linearGradient id="paint1_linear_83_1438" x1="144.632" y1="290.284" x2="167.837" y2="276.568" gradientUnits="userSpaceOnUse">
<stop stop-color="white"/>
<stop offset="1" stop-color="#E5E5E5"/>
</linearGradient>
<linearGradient id="paint2_linear_83_1438" x1="34.6693" y1="115.917" x2="57.1562" y2="102.627" gradientUnits="userSpaceOnUse">
<stop stop-color="white"/>
<stop offset="1" stop-color="#E5E5E5"/>
</linearGradient>
<linearGradient id="paint3_linear_83_1438" x1="69.4512" y1="250.704" x2="66.0305" y2="264.011" gradientUnits="userSpaceOnUse">
<stop stop-color="white"/>
<stop offset="1" stop-color="#E5E5E5"/>
</linearGradient>
<linearGradient id="paint4_linear_83_1438" x1="144.012" y1="239.145" x2="140.592" y2="252.452" gradientUnits="userSpaceOnUse">
<stop stop-color="white"/>
<stop offset="1" stop-color="#E5E5E5"/>
</linearGradient>
<linearGradient id="paint5_linear_83_1438" x1="91.912" y1="193.172" x2="86.8373" y2="212.945" gradientUnits="userSpaceOnUse">
<stop stop-color="white"/>
<stop offset="1" stop-color="#E5E5E5"/>
</linearGradient>
<linearGradient id="paint6_linear_83_1438" x1="18.8927" y1="149.85" x2="16.6373" y2="158.721" gradientUnits="userSpaceOnUse">
<stop stop-color="white"/>
<stop offset="1" stop-color="#E5E5E5"/>
</linearGradient>
<linearGradient id="paint7_linear_83_1438" x1="66.3508" y1="54.8403" x2="64.0766" y2="63.6928" gradientUnits="userSpaceOnUse">
<stop stop-color="white"/>
<stop offset="1" stop-color="#E5E5E5"/>
</linearGradient>
<linearGradient id="paint8_linear_83_1438" x1="211.261" y1="259.595" x2="208.986" y2="268.447" gradientUnits="userSpaceOnUse">
<stop stop-color="white"/>
<stop offset="1" stop-color="#E5E5E5"/>
</linearGradient>
<linearGradient id="paint9_linear_83_1438" x1="212.2" y1="296.809" x2="207.933" y2="313.48" gradientUnits="userSpaceOnUse">
<stop stop-color="white"/>
<stop offset="1" stop-color="#E5E5E5"/>
</linearGradient>
<linearGradient id="paint10_linear_83_1438" x1="69.4512" y1="250.704" x2="66.0305" y2="264.011" gradientUnits="userSpaceOnUse">
<stop stop-color="white"/>
<stop offset="1" stop-color="#E5E5E5"/>
</linearGradient>
<linearGradient id="paint11_linear_83_1438" x1="144.012" y1="239.145" x2="140.592" y2="252.452" gradientUnits="userSpaceOnUse">
<stop stop-color="white"/>
<stop offset="1" stop-color="#E5E5E5"/>
</linearGradient>
<linearGradient id="paint12_linear_83_1438" x1="91.912" y1="193.172" x2="86.8373" y2="212.945" gradientUnits="userSpaceOnUse">
<stop stop-color="white"/>
<stop offset="1" stop-color="#E5E5E5"/>
</linearGradient>
<linearGradient id="paint13_linear_83_1438" x1="18.8927" y1="149.85" x2="16.6373" y2="158.721" gradientUnits="userSpaceOnUse">
<stop stop-color="white"/>
<stop offset="1" stop-color="#E5E5E5"/>
</linearGradient>
<linearGradient id="paint14_linear_83_1438" x1="66.3508" y1="54.8403" x2="64.0766" y2="63.6928" gradientUnits="userSpaceOnUse">
<stop stop-color="white"/>
<stop offset="1" stop-color="#E5E5E5"/>
</linearGradient>
<linearGradient id="paint15_linear_83_1438" x1="211.261" y1="259.595" x2="208.986" y2="268.447" gradientUnits="userSpaceOnUse">
<stop stop-color="white"/>
<stop offset="1" stop-color="#E5E5E5"/>
</linearGradient>
<linearGradient id="paint16_linear_83_1438" x1="212.2" y1="296.809" x2="207.933" y2="313.48" gradientUnits="userSpaceOnUse">
<stop stop-color="white"/>
<stop offset="1" stop-color="#E5E5E5"/>
</linearGradient>
</defs>
</svg>
