<svg width="1355" height="1226" viewBox="0 0 1355 1226" fill="none" xmlns="http://www.w3.org/2000/svg">
<g clip-path="url(#clip0_83_847)">
<path d="M42.3245 10.0545C43.6258 9.17342 43.9992 7.45272 43.1585 6.21118C42.3179 4.96963 40.5815 4.67742 39.2803 5.55849C37.979 6.43956 37.6057 8.16027 38.4463 9.40181C39.287 10.6434 41.0233 10.9356 42.3245 10.0545Z" fill="#6E6E6E"/>
<path d="M47.0368 6.86382C48.338 5.98275 48.7114 4.26201 47.8708 3.02047C47.0301 1.77893 45.2937 1.48674 43.9925 2.36782C42.6913 3.24889 42.3179 4.9696 43.1585 6.21114C43.9992 7.45268 45.7355 7.7449 47.0368 6.86382Z" fill="#E8E8E8"/>
<path d="M78.1677 57.9154C80.7702 56.1533 81.5169 52.7118 79.8356 50.2287C78.1543 47.7456 74.6816 47.1612 72.0791 48.9234C69.4767 50.6855 68.7299 54.1269 70.4112 56.61C72.0925 59.0931 75.5652 59.6776 78.1677 57.9154Z" fill="#DADADA"/>
<path d="M106.254 104.471C107.556 103.59 107.929 101.869 107.088 100.628C106.248 99.3862 104.511 99.0939 103.21 99.975C101.909 100.856 101.535 102.577 102.376 103.818C103.217 105.06 104.953 105.352 106.254 104.471Z" fill="#1C1C1C"/>
<path d="M110.966 101.28C112.268 100.399 112.641 98.6786 111.8 97.437C110.96 96.1955 109.223 95.9032 107.922 96.7843C106.621 97.6654 106.248 99.3861 107.088 100.628C107.929 101.869 109.665 102.161 110.966 101.28Z" fill="#F8F8F8"/>
<path d="M202.854 39.0627C205.457 37.3006 206.204 33.8591 204.522 31.3761C202.841 28.893 199.368 28.3085 196.766 30.0707C194.163 31.8328 193.417 35.2743 195.098 37.7574C196.779 40.2404 200.252 40.8249 202.854 39.0627Z" fill="#161616"/>
<path d="M244.576 4.25564C245.877 3.37456 246.251 1.65386 245.41 0.412316C244.569 -0.829226 242.833 -1.12144 241.532 -0.24037C240.23 0.640703 239.857 2.36144 240.698 3.60298C241.538 4.84453 243.275 5.13671 244.576 4.25564Z" fill="#B6B6B6"/>
<path d="M-2.3128 243.555C0.289674 241.793 1.03642 238.352 -0.644881 235.869C-2.32619 233.386 -5.79888 232.801 -8.40136 234.563C-11.0038 236.325 -11.7506 239.767 -10.0693 242.25C-8.38799 244.733 -4.91528 245.317 -2.3128 243.555Z" fill="#666666"/>
<path d="M233.297 84.0229C235.9 82.2608 236.646 78.8194 234.965 76.3363C233.284 73.8532 229.811 73.2687 227.209 75.0309C224.606 76.793 223.859 80.2345 225.541 82.7176C227.222 85.2007 230.695 85.7851 233.297 84.0229Z" fill="#BEBEBE"/>
<path d="M75.2518 256.609C77.8543 254.847 78.6011 251.405 76.9198 248.922C75.2385 246.439 71.7658 245.855 69.1633 247.617C66.5608 249.379 65.814 252.82 67.4953 255.304C69.1766 257.787 72.6494 258.371 75.2518 256.609Z" fill="#787878"/>
<path d="M171.852 191.201C173.153 190.32 173.527 188.599 172.686 187.357C171.845 186.116 170.109 185.824 168.808 186.705C167.506 187.586 167.133 189.307 167.974 190.548C168.814 191.79 170.551 192.082 171.852 191.201Z" fill="#616161"/>
<path d="M357.984 65.1702C360.586 63.4081 361.333 59.9666 359.652 57.4836C357.97 55.0005 354.498 54.416 351.895 56.1781C349.293 57.9403 348.546 61.3817 350.227 63.8648C351.909 66.3479 355.381 66.9323 357.984 65.1702Z" fill="#232323"/>
<path d="M405.106 33.2638C407.708 31.5016 408.455 28.0602 406.774 25.5771C405.092 23.094 401.62 22.5096 399.017 24.2717C396.415 26.0338 395.668 29.4754 397.349 31.9585C399.03 34.4415 402.503 35.0259 405.106 33.2638Z" fill="#B4B4B4"/>
<path d="M11.4506 365.382C14.0531 363.62 14.7999 360.179 13.1186 357.696C11.4373 355.212 7.96456 354.628 5.36208 356.39C2.75961 358.152 2.01286 361.594 3.69416 364.077C5.37547 366.56 8.84813 367.144 11.4506 365.382Z" fill="#B6B6B6"/>
<path d="M341.304 142.037C343.907 140.275 344.654 136.833 342.972 134.35C341.291 131.867 337.818 131.283 335.216 133.045C332.613 134.807 331.867 138.249 333.548 140.732C335.229 143.215 338.702 143.799 341.304 142.037Z" fill="#E5E5E5"/>
<path d="M388.426 110.13C391.029 108.368 391.776 104.927 390.094 102.444C388.413 99.9606 384.94 99.3762 382.338 101.138C379.735 102.9 378.989 106.342 380.67 108.825C382.351 111.308 385.824 111.893 388.426 110.13Z" fill="#CECECE"/>
<path d="M277.503 250.81C280.106 249.048 280.852 245.606 279.171 243.123C277.49 240.64 274.017 240.056 271.415 241.818C268.812 243.58 268.065 247.022 269.747 249.505C271.428 251.988 274.901 252.572 277.503 250.81Z" fill="#969696"/>
<path d="M324.625 218.904C327.228 217.141 327.974 213.7 326.293 211.217C324.612 208.734 321.139 208.149 318.537 209.912C315.934 211.674 315.187 215.115 316.869 217.598C318.55 220.081 322.023 220.666 324.625 218.904Z" fill="#878787"/>
<path d="M560.235 59.3713C562.838 57.6091 563.584 54.1677 561.903 51.6847C560.222 49.2016 556.749 48.617 554.147 50.3792C551.544 52.1413 550.797 55.5828 552.479 58.0659C554.16 60.549 557.633 61.1334 560.235 59.3713Z" fill="#747474"/>
<path d="M25.2141 487.209C27.8166 485.447 28.5634 482.005 26.8821 479.522C25.2008 477.039 21.728 476.455 19.1256 478.217C16.5231 479.979 15.7763 483.421 17.4577 485.904C19.139 488.387 22.6116 488.971 25.2141 487.209Z" fill="#1C1C1C"/>
<path d="M213.702 359.583C216.304 357.821 217.051 354.38 215.37 351.896C213.689 349.413 210.216 348.829 207.613 350.591C205.011 352.353 204.264 355.795 205.946 358.278C207.627 360.761 211.099 361.345 213.702 359.583Z" fill="#929292"/>
<path d="M307.946 295.77C310.548 294.008 311.295 290.567 309.614 288.084C307.933 285.6 304.46 285.016 301.857 286.778C299.255 288.54 298.508 291.982 300.189 294.465C301.871 296.948 305.343 297.532 307.946 295.77Z" fill="#9D9D9D"/>
<path d="M402.19 231.957C404.792 230.195 405.539 226.754 403.858 224.271C402.176 221.788 398.704 221.203 396.101 222.965C393.499 224.727 392.752 228.169 394.433 230.652C396.115 233.135 399.587 233.719 402.19 231.957Z" fill="#E5E5E5"/>
<path d="M684.922 40.5184C687.524 38.7563 688.271 35.3149 686.59 32.8318C684.908 30.3487 681.436 29.7643 678.833 31.5264C676.231 33.2886 675.484 36.73 677.165 39.213C678.847 41.6961 682.319 42.2806 684.922 40.5184Z" fill="#DFDFDF"/>
<path d="M197.023 436.45C199.625 434.688 200.372 431.246 198.691 428.763C197.009 426.28 193.537 425.696 190.934 427.458C188.332 429.22 187.585 432.661 189.266 435.144C190.948 437.628 194.42 438.212 197.023 436.45Z" fill="#636363"/>
<path d="M338.389 340.73C340.991 338.968 341.738 335.527 340.057 333.044C338.375 330.561 334.903 329.976 332.3 331.738C329.698 333.5 328.951 336.942 330.632 339.425C332.313 341.908 335.786 342.492 338.389 340.73Z" fill="#B0B0B0"/>
<path d="M479.755 245.011C482.357 243.249 483.104 239.807 481.422 237.324C479.741 234.841 476.269 234.257 473.666 236.019C471.064 237.781 470.317 241.223 471.998 243.706C473.679 246.189 477.152 246.773 479.755 245.011Z" fill="#7B7B7B"/>
<path d="M526.877 213.105C529.479 211.342 530.226 207.901 528.544 205.418C526.863 202.935 523.39 202.35 520.788 204.113C518.186 205.875 517.439 209.316 519.12 211.799C520.801 214.282 524.274 214.867 526.877 213.105Z" fill="#CACACA"/>
<path d="M668.242 117.385C670.845 115.623 671.592 112.181 669.91 109.698C668.229 107.215 664.756 106.631 662.154 108.393C659.551 110.155 658.805 113.597 660.486 116.08C662.167 118.563 665.64 119.147 668.242 117.385Z" fill="#B4B4B4"/>
<path d="M762.486 53.5722C765.089 51.81 765.836 48.3686 764.154 45.8855C762.473 43.4025 759 42.818 756.398 44.5802C753.795 46.3423 753.049 49.7838 754.73 52.2669C756.411 54.75 759.884 55.3343 762.486 53.5722Z" fill="#F3F3F3"/>
<path d="M38.9776 609.036C41.5801 607.274 42.3268 603.832 40.6455 601.349C38.9642 598.866 35.4915 598.282 32.889 600.044C30.2866 601.806 29.5398 605.247 31.2211 607.73C32.9024 610.213 36.3751 610.798 38.9776 609.036Z" fill="#696969"/>
<path d="M368.831 385.691C371.434 383.928 372.181 380.487 370.499 378.004C368.818 375.521 365.345 374.936 362.743 376.699C360.14 378.461 359.394 381.902 361.075 384.385C362.756 386.868 366.229 387.453 368.831 385.691Z" fill="#CDCDCD"/>
<path d="M415.953 353.784C418.556 352.022 419.303 348.581 417.621 346.097C415.94 343.614 412.467 343.03 409.865 344.792C407.262 346.554 406.516 349.996 408.197 352.479C409.878 354.962 413.351 355.546 415.953 353.784Z" fill="#7B7B7B"/>
<path d="M698.685 162.345C701.288 160.583 702.034 157.142 700.353 154.659C698.672 152.176 695.199 151.591 692.597 153.353C689.994 155.115 689.247 158.557 690.929 161.04C692.61 163.523 696.083 164.108 698.685 162.345Z" fill="#747474"/>
<path d="M745.807 130.439C748.41 128.677 749.156 125.235 747.475 122.752C745.794 120.269 742.321 119.685 739.719 121.447C737.116 123.209 736.369 126.65 738.051 129.133C739.732 131.617 743.205 132.201 745.807 130.439Z" fill="#323232"/>
<path d="M840.051 66.6261C842.654 64.8639 843.4 61.4224 841.719 58.9393C840.038 56.4562 836.565 55.8718 833.963 57.6339C831.36 59.3961 830.613 62.8375 832.295 65.3206C833.976 67.8037 837.449 68.3882 840.051 66.6261Z" fill="#666666"/>
<path d="M887.173 34.7196C889.776 32.9574 890.522 29.5159 888.841 27.0328C887.16 24.5497 883.687 23.9653 881.085 25.7275C878.482 27.4896 877.735 30.931 879.417 33.4141C881.098 35.8972 884.571 36.4817 887.173 34.7196Z" fill="#222222"/>
<path d="M67.0642 655.591C68.3654 654.71 68.7388 652.99 67.8982 651.748C67.0575 650.506 65.3212 650.214 64.0199 651.095C62.7187 651.976 62.3453 653.697 63.1859 654.939C64.0266 656.18 65.763 656.472 67.0642 655.591Z" fill="#F9F9F9"/>
<path d="M116.542 622.09C119.145 620.327 119.892 616.886 118.21 614.403C116.529 611.92 113.056 611.335 110.454 613.098C107.851 614.86 107.105 618.301 108.786 620.784C110.467 623.267 113.94 623.852 116.542 622.09Z" fill="#656565"/>
<path d="M299.63 491.563C300.931 490.682 301.304 488.961 300.464 487.72C299.623 486.478 297.887 486.186 296.586 487.067C295.284 487.948 294.911 489.669 295.752 490.91C296.592 492.152 298.329 492.444 299.63 491.563Z" fill="#747474"/>
<path d="M304.342 488.372C305.643 487.491 306.017 485.771 305.176 484.529C304.335 483.288 302.599 482.995 301.298 483.876C299.997 484.758 299.623 486.478 300.464 487.72C301.304 488.961 303.041 489.254 304.342 488.372Z" fill="#262626"/>
<path d="M964.738 47.7733C967.34 46.0112 968.087 42.5697 966.406 40.0866C964.724 37.6035 961.252 37.0191 958.649 38.7813C956.047 40.5434 955.3 43.9848 956.981 46.4679C958.663 48.951 962.135 49.5354 964.738 47.7733Z" fill="#909090"/>
<path d="M5.61907 762.769C8.22154 761.007 8.96832 757.566 7.28701 755.083C5.60571 752.599 2.13296 752.015 -0.46952 753.777C-3.07199 755.539 -3.81868 758.981 -2.13738 761.464C-0.456072 763.947 3.01659 764.531 5.61907 762.769Z" fill="#F0F0F0"/>
<path d="M94.4626 696.056C95.7639 695.174 96.1372 693.454 95.2966 692.212C94.4559 690.971 92.7195 690.678 91.4183 691.559C90.1171 692.441 89.7437 694.161 90.5844 695.403C91.425 696.644 93.1614 696.937 94.4626 696.056Z" fill="#ACACAC"/>
<path d="M335.473 539.424C338.075 537.662 338.822 534.22 337.141 531.737C335.459 529.254 331.987 528.67 329.384 530.432C326.782 532.194 326.035 535.635 327.716 538.119C329.398 540.602 332.87 541.186 335.473 539.424Z" fill="#1E1E1E"/>
<path d="M518.56 408.897C519.862 408.016 520.235 406.296 519.394 405.054C518.554 403.813 516.817 403.52 515.516 404.401C514.215 405.282 513.841 407.003 514.682 408.245C515.523 409.486 517.259 409.779 518.56 408.897Z" fill="#E3E3E3"/>
<path d="M523.273 405.707C524.574 404.826 524.947 403.105 524.107 401.863C523.266 400.622 521.53 400.33 520.228 401.211C518.927 402.092 518.554 403.813 519.394 405.054C520.235 406.296 521.971 406.588 523.273 405.707Z" fill="#6D6D6D"/>
<path d="M526.317 410.203C527.618 409.322 527.991 407.601 527.151 406.359C526.31 405.118 524.574 404.826 523.273 405.707C521.971 406.588 521.598 408.309 522.439 409.55C523.279 410.792 525.016 411.084 526.317 410.203Z" fill="#CECECE"/>
<path d="M659.926 313.178C661.228 312.297 661.601 310.576 660.76 309.335C659.92 308.093 658.183 307.801 656.882 308.682C655.581 309.563 655.207 311.284 656.048 312.525C656.889 313.767 658.625 314.059 659.926 313.178Z" fill="#999999"/>
<path d="M1136.55 -2.98589C1139.15 -4.74803 1139.9 -8.18944 1138.21 -10.6725C1136.53 -13.1556 1133.06 -13.7401 1130.46 -11.978C1127.86 -10.2158 1127.11 -6.77434 1128.79 -4.29126C1130.47 -1.80817 1133.94 -1.22374 1136.55 -2.98589Z" fill="#EFEFEF"/>
<path d="M130.306 743.916C132.908 742.154 133.655 738.713 131.974 736.23C130.292 733.747 126.82 733.162 124.217 734.924C121.615 736.686 120.868 740.128 122.549 742.611C124.231 745.094 127.703 745.678 130.306 743.916Z" fill="#E0E0E0"/>
<path d="M313.393 613.39C314.694 612.509 315.068 610.788 314.227 609.546C313.387 608.305 311.65 608.013 310.349 608.894C309.048 609.775 308.674 611.496 309.515 612.737C310.356 613.979 312.092 614.271 313.393 613.39Z" fill="#0A0A0A"/>
<path d="M316.438 617.886C317.739 617.005 318.112 615.284 317.271 614.043C316.431 612.801 314.694 612.509 313.393 613.39C312.092 614.271 311.719 615.992 312.559 617.233C313.4 618.475 315.136 618.767 316.438 617.886Z" fill="#151515"/>
<path d="M365.916 584.384C368.518 582.622 369.265 579.18 367.583 576.697C365.902 574.214 362.429 573.63 359.827 575.392C357.225 577.154 356.478 580.596 358.159 583.079C359.84 585.562 363.313 586.146 365.916 584.384Z" fill="#525252"/>
<path d="M413.037 552.478C415.64 550.716 416.387 547.274 414.705 544.791C413.024 542.308 409.551 541.723 406.949 543.486C404.346 545.248 403.6 548.689 405.281 551.172C406.962 553.655 410.435 554.24 413.037 552.478Z" fill="#E4E4E4"/>
<path d="M460.159 520.571C462.762 518.809 463.509 515.368 461.827 512.884C460.146 510.401 456.673 509.817 454.071 511.579C451.468 513.341 450.722 516.783 452.403 519.266C454.084 521.749 457.557 522.333 460.159 520.571Z" fill="#2E2E2E"/>
<path d="M837.135 265.319C839.738 263.557 840.485 260.116 838.803 257.633C837.122 255.15 833.649 254.565 831.047 256.327C828.444 258.09 827.698 261.531 829.379 264.014C831.06 266.497 834.533 267.082 837.135 265.319Z" fill="#090909"/>
<path d="M1072.75 105.787C1075.35 104.025 1076.09 100.584 1074.41 98.1005C1072.73 95.6174 1069.26 95.0329 1066.66 96.7951C1064.05 98.5572 1063.31 101.999 1064.99 104.482C1066.67 106.965 1070.14 107.549 1072.75 105.787Z" fill="#9B9B9B"/>
<path d="M1166.99 41.9742C1169.59 40.2121 1170.34 36.7707 1168.66 34.2876C1166.98 31.8045 1163.5 31.2201 1160.9 32.9822C1158.3 34.7444 1157.55 38.1858 1159.23 40.6689C1160.91 43.1519 1164.39 43.7364 1166.99 41.9742Z" fill="#929292"/>
<path d="M19.3826 884.596C21.9851 882.834 22.7318 879.393 21.0505 876.91C19.3692 874.426 15.8965 873.842 13.2941 875.604C10.6916 877.366 9.94481 880.808 11.6261 883.291C13.3074 885.774 16.7801 886.358 19.3826 884.596Z" fill="#494949"/>
<path d="M112.938 814.692C114.24 813.811 114.613 812.09 113.772 810.849C112.932 809.607 111.195 809.315 109.894 810.196C108.593 811.077 108.22 812.798 109.06 814.039C109.901 815.281 111.637 815.573 112.938 814.692Z" fill="#595959"/>
<path d="M115.983 819.188C117.284 818.307 117.657 816.586 116.817 815.344C115.976 814.103 114.24 813.811 112.938 814.692C111.637 815.573 111.264 817.294 112.104 818.535C112.945 819.777 114.681 820.069 115.983 819.188Z" fill="#C8C8C8"/>
<path d="M254.992 725.064C257.595 723.302 258.342 719.86 256.66 717.377C254.979 714.894 251.506 714.31 248.904 716.072C246.301 717.834 245.555 721.275 247.236 723.758C248.917 726.242 252.39 726.826 254.992 725.064Z" fill="#888888"/>
<path d="M348.548 655.16C349.849 654.279 350.223 652.558 349.382 651.316C348.542 650.075 346.805 649.783 345.504 650.664C344.203 651.545 343.829 653.265 344.67 654.507C345.511 655.748 347.247 656.041 348.548 655.16Z" fill="#484848"/>
<path d="M584.846 501.719C587.449 499.956 588.195 496.515 586.514 494.032C584.833 491.549 581.36 490.964 578.758 492.727C576.155 494.489 575.408 497.93 577.09 500.413C578.771 502.896 582.244 503.481 584.846 501.719Z" fill="#CCCCCC"/>
<path d="M726.212 405.999C728.815 404.237 729.561 400.796 727.88 398.313C726.199 395.83 722.726 395.245 720.124 397.007C717.521 398.769 716.774 402.211 718.456 404.694C720.137 407.177 723.61 407.761 726.212 405.999Z" fill="#595959"/>
<path d="M820.456 342.186C823.059 340.424 823.805 336.983 822.124 334.5C820.443 332.016 816.97 331.432 814.368 333.194C811.765 334.956 811.018 338.398 812.7 340.881C814.381 343.364 817.854 343.948 820.456 342.186Z" fill="#909090"/>
<path d="M866.89 304.189C868.191 303.307 868.565 301.587 867.724 300.345C866.883 299.104 865.147 298.811 863.846 299.693C862.544 300.574 862.171 302.294 863.012 303.536C863.852 304.777 865.589 305.07 866.89 304.189Z" fill="#515151"/>
<path d="M865.222 311.875C866.523 310.994 866.897 309.273 866.056 308.032C865.215 306.79 863.479 306.498 862.178 307.379C860.877 308.26 860.503 309.981 861.344 311.222C862.184 312.464 863.921 312.756 865.222 311.875Z" fill="#555555"/>
<path d="M869.934 308.684C871.235 307.803 871.609 306.083 870.768 304.841C869.927 303.6 868.191 303.307 866.89 304.188C865.589 305.069 865.215 306.79 866.056 308.032C866.897 309.273 868.633 309.565 869.934 308.684Z" fill="#8E8E8E"/>
<path d="M1008.94 214.56C1011.55 212.798 1012.29 209.357 1010.61 206.874C1008.93 204.391 1005.46 203.806 1002.86 205.568C1000.25 207.331 999.506 210.772 1001.19 213.255C1002.87 215.738 1006.34 216.323 1008.94 214.56Z" fill="#5D5D5D"/>
<path d="M99.3033 896.055C100.605 895.173 100.978 893.453 100.137 892.211C99.2966 890.97 97.5602 890.677 96.259 891.558C94.9578 892.439 94.5844 894.16 95.425 895.402C96.2657 896.643 98.0021 896.936 99.3033 896.055Z" fill="#5F5F5F"/>
<path d="M144.069 865.743C146.672 863.981 147.418 860.54 145.737 858.057C144.056 855.574 140.583 854.989 137.981 856.751C135.378 858.513 134.631 861.955 136.313 864.438C137.994 866.921 141.467 867.505 144.069 865.743Z" fill="#444444"/>
<path d="M379.679 706.211C382.282 704.449 383.028 701.007 381.347 698.524C379.666 696.041 376.193 695.457 373.59 697.219C370.988 698.981 370.241 702.423 371.923 704.906C373.604 707.389 377.077 707.973 379.679 706.211Z" fill="#FCFCFC"/>
<path d="M473.923 642.398C476.525 640.636 477.272 637.194 475.591 634.711C473.91 632.228 470.437 631.644 467.834 633.406C465.232 635.168 464.485 638.61 466.167 641.093C467.848 643.576 471.321 644.16 473.923 642.398Z" fill="#8A8A8A"/>
<path d="M568.167 578.585C570.77 576.823 571.516 573.382 569.835 570.899C568.154 568.415 564.681 567.831 562.078 569.593C559.476 571.355 558.729 574.797 560.41 577.28C562.092 579.763 565.565 580.347 568.167 578.585Z" fill="#8D8D8D"/>
<path d="M850.899 387.146C853.501 385.384 854.248 381.943 852.567 379.46C850.885 376.977 847.413 376.392 844.81 378.154C842.208 379.916 841.461 383.358 843.142 385.841C844.824 388.324 848.296 388.909 850.899 387.146Z" fill="#1A1A1A"/>
<path d="M1039.39 259.521C1041.99 257.758 1042.74 254.317 1041.05 251.834C1039.37 249.351 1035.9 248.766 1033.3 250.528C1030.7 252.291 1029.95 255.732 1031.63 258.215C1033.31 260.698 1036.78 261.283 1039.39 259.521Z" fill="#717171"/>
<path d="M221.634 878.797C224.236 877.035 224.983 873.594 223.302 871.11C221.621 868.627 218.148 868.043 215.545 869.805C212.943 871.567 212.196 875.009 213.877 877.492C215.559 879.975 219.031 880.559 221.634 878.797Z" fill="#0D0D0D"/>
<path d="M268.068 840.799C269.369 839.918 269.742 838.198 268.902 836.956C268.061 835.714 266.325 835.422 265.023 836.303C263.722 837.184 263.349 838.905 264.189 840.147C265.03 841.388 266.766 841.68 268.068 840.799Z" fill="#DDDDDD"/>
<path d="M266.4 848.486C267.701 847.605 268.074 845.884 267.234 844.643C266.393 843.401 264.657 843.109 263.356 843.99C262.054 844.871 261.681 846.592 262.522 847.833C263.362 849.075 265.099 849.367 266.4 848.486Z" fill="#A8A8A8"/>
<path d="M271.112 845.295C272.413 844.414 272.787 842.694 271.946 841.452C271.105 840.21 269.369 839.918 268.068 840.799C266.766 841.68 266.393 843.401 267.234 844.643C268.074 845.884 269.811 846.176 271.112 845.295Z" fill="#3A3A3A"/>
<path d="M315.878 814.984C318.48 813.222 319.227 809.781 317.546 807.298C315.864 804.814 312.392 804.23 309.789 805.992C307.187 807.754 306.44 811.196 308.121 813.679C309.803 816.162 313.275 816.746 315.878 814.984Z" fill="#CECECE"/>
<path d="M363 783.078C365.602 781.316 366.349 777.874 364.668 775.391C362.986 772.908 359.514 772.324 356.911 774.086C354.309 775.848 353.562 779.289 355.243 781.772C356.925 784.255 360.397 784.84 363 783.078Z" fill="#8A8A8A"/>
<path d="M410.122 751.171C412.724 749.409 413.471 745.968 411.79 743.485C410.108 741.002 406.636 740.417 404.033 742.179C401.431 743.941 400.684 747.383 402.365 749.866C404.047 752.349 407.519 752.933 410.122 751.171Z" fill="#B7B7B7"/>
<path d="M457.244 719.265C459.846 717.503 460.593 714.061 458.912 711.578C457.23 709.095 453.758 708.511 451.155 710.273C448.553 712.035 447.806 715.476 449.487 717.96C451.169 720.443 454.641 721.027 457.244 719.265Z" fill="#1B1B1B"/>
<path d="M598.61 623.545C601.212 621.783 601.959 618.342 600.278 615.859C598.596 613.376 595.124 612.791 592.521 614.553C589.919 616.316 589.172 619.757 590.853 622.24C592.535 624.723 596.007 625.308 598.61 623.545Z" fill="#EEEEEE"/>
<path d="M739.976 527.826C742.578 526.064 743.325 522.623 741.644 520.139C739.962 517.656 736.49 517.072 733.887 518.834C731.285 520.596 730.538 524.038 732.219 526.521C733.9 529.004 737.373 529.588 739.976 527.826Z" fill="#E5E5E5"/>
<path d="M834.22 464.013C836.822 462.251 837.569 458.81 835.888 456.327C834.206 453.843 830.734 453.259 828.131 455.021C825.529 456.783 824.782 460.225 826.463 462.708C828.144 465.191 831.617 465.775 834.22 464.013Z" fill="#727272"/>
<path d="M1164.07 240.668C1166.68 238.906 1167.42 235.464 1165.74 232.981C1164.06 230.498 1160.59 229.914 1157.98 231.676C1155.38 233.438 1154.64 236.879 1156.32 239.362C1158 241.846 1161.47 242.43 1164.07 240.668Z" fill="#4B4B4B"/>
<path d="M63.5887 1051.38C66.1912 1049.62 66.938 1046.18 65.2567 1043.7C63.5754 1041.21 60.1026 1040.63 57.5002 1042.39C54.8977 1044.15 54.151 1047.59 55.8323 1050.08C57.5136 1052.56 60.9863 1053.15 63.5887 1051.38Z" fill="#D2D2D2"/>
<path d="M157.833 987.57C160.435 985.808 161.182 982.367 159.501 979.884C157.819 977.401 154.347 976.816 151.744 978.578C149.142 980.34 148.395 983.782 150.076 986.265C151.757 988.748 155.23 989.332 157.833 987.57Z" fill="#252525"/>
<path d="M393.443 828.038C396.045 826.276 396.792 822.834 395.11 820.351C393.429 817.868 389.956 817.284 387.354 819.046C384.751 820.808 384.005 824.249 385.686 826.733C387.367 829.216 390.84 829.8 393.443 828.038Z" fill="#080808"/>
<path d="M676.174 636.599C678.777 634.837 679.524 631.396 677.842 628.913C676.161 626.429 672.688 625.845 670.086 627.607C667.483 629.369 666.737 632.811 668.418 635.294C670.099 637.777 673.572 638.361 676.174 636.599Z" fill="#B5B5B5"/>
<path d="M720.94 606.288C722.242 605.407 722.615 603.686 721.774 602.445C720.934 601.203 719.197 600.911 717.896 601.792C716.595 602.673 716.221 604.394 717.062 605.635C717.903 606.877 719.639 607.169 720.94 606.288Z" fill="#E8E8E8"/>
<path d="M725.652 603.097C726.954 602.216 727.327 600.496 726.486 599.254C725.646 598.012 723.909 597.72 722.608 598.601C721.307 599.482 720.934 601.203 721.774 602.445C722.615 603.686 724.351 603.978 725.652 603.097Z" fill="#A5A5A5"/>
<path d="M911.784 477.067C914.387 475.305 915.134 471.863 913.452 469.38C911.771 466.897 908.298 466.313 905.696 468.075C903.093 469.837 902.347 473.278 904.028 475.761C905.709 478.245 909.182 478.829 911.784 477.067Z" fill="#727272"/>
<path d="M-0.212587 1160.16C2.38989 1158.39 3.13666 1154.95 1.45535 1152.47C-0.225954 1149.99 -3.69864 1149.4 -6.30111 1151.16C-8.90359 1152.93 -9.65035 1156.37 -7.96904 1158.85C-6.28774 1161.33 -2.81506 1161.92 -0.212587 1160.16Z" fill="#E9E9E9"/>
<path d="M94.0314 1096.34C96.6338 1094.58 97.3806 1091.14 95.6993 1088.66C94.018 1086.17 90.5453 1085.59 87.9428 1087.35C85.3404 1089.11 84.5936 1092.55 86.2749 1095.04C87.9562 1097.52 91.4289 1098.11 94.0314 1096.34Z" fill="#F4F4F4"/>
<path d="M235.397 1000.62C238 998.862 238.747 995.42 237.065 992.937C235.384 990.454 231.911 989.87 229.309 991.632C226.706 993.394 225.96 996.835 227.641 999.319C229.322 1001.8 232.795 1002.39 235.397 1000.62Z" fill="#989898"/>
<path d="M280.163 970.313C281.464 969.432 281.838 967.711 280.997 966.47C280.157 965.228 278.42 964.936 277.119 965.817C275.818 966.698 275.444 968.419 276.285 969.66C277.126 970.902 278.862 971.194 280.163 970.313Z" fill="#DEDEDE"/>
<path d="M512.729 806.284C514.03 805.403 514.403 803.683 513.563 802.441C512.722 801.2 510.986 800.907 509.685 801.788C508.383 802.67 508.01 804.39 508.851 805.632C509.691 806.873 511.428 807.166 512.729 806.284Z" fill="#070707"/>
<path d="M517.441 803.094C518.742 802.213 519.116 800.492 518.275 799.25C517.434 798.009 515.698 797.717 514.397 798.598C513.095 799.479 512.722 801.2 513.563 802.441C514.403 803.683 516.14 803.975 517.441 803.094Z" fill="#111111"/>
<path d="M654.095 710.565C655.396 709.684 655.769 707.963 654.929 706.722C654.088 705.48 652.352 705.188 651.05 706.069C649.749 706.95 649.376 708.671 650.216 709.912C651.057 711.154 652.793 711.446 654.095 710.565Z" fill="#090909"/>
<path d="M658.807 707.374C660.108 706.493 660.482 704.773 659.641 703.531C658.8 702.29 657.064 701.997 655.763 702.878C654.461 703.76 654.088 705.48 654.929 706.722C655.769 707.963 657.506 708.256 658.807 707.374Z" fill="#4B4B4B"/>
<path d="M661.851 711.871C663.152 710.989 663.526 709.269 662.685 708.027C661.845 706.786 660.108 706.493 658.807 707.375C657.506 708.256 657.132 709.976 657.973 711.218C658.814 712.459 660.55 712.752 661.851 711.871Z" fill="#141414"/>
<path d="M1177.84 362.495C1180.44 360.733 1181.19 357.291 1179.5 354.808C1177.82 352.325 1174.35 351.741 1171.75 353.503C1169.15 355.265 1168.4 358.706 1170.08 361.189C1171.76 363.672 1175.23 364.257 1177.84 362.495Z" fill="#414141"/>
<path d="M1224.96 330.588C1227.56 328.826 1228.31 325.385 1226.63 322.901C1224.95 320.418 1221.47 319.834 1218.87 321.596C1216.27 323.358 1215.52 326.8 1217.2 329.283C1218.88 331.766 1222.36 332.35 1224.96 330.588Z" fill="#434343"/>
</g>
<defs>
<clipPath id="clip0_83_847">
<rect width="1707.24" height="1628.91" fill="white" transform="translate(-972 -122.806) rotate(-34.1021)"/>
</clipPath>
</defs>
</svg>
