<svg width="80" height="152" viewBox="0 0 80 152" fill="none" xmlns="http://www.w3.org/2000/svg">
<g clip-path="url(#clip0_83_1245)">
<path d="M78.756 140.735H0V151.337H78.756V140.735Z" fill="#E5E5E5"/>
<path d="M6.29713 137.95H0.0515633V139.91H6.29713V137.95Z" fill="#F9E52D"/>
<path d="M13.5482 137.95H7.30261V139.91H13.5482V137.95Z" fill="#EF294B"/>
<path d="M20.7992 137.95H14.5537V139.91H20.7992V137.95Z" fill="#46DB21"/>
<path d="M28.0503 137.95H21.8047V139.91H28.0503V137.95Z" fill="#3BF4EF"/>
<path d="M35.3013 137.95H29.0558V139.91H35.3013V137.95Z" fill="#F4259C"/>
<path d="M42.5524 137.95H36.3068V139.91H42.5524V137.95Z" fill="#F9E52D"/>
<path d="M49.8034 137.95H43.5578V139.91H49.8034V137.95Z" fill="#46DB21"/>
<path d="M57.0545 137.95H50.8089V139.91H57.0545V137.95Z" fill="#F9E52D"/>
<path d="M64.3055 137.95H58.0599V139.91H64.3055V137.95Z" fill="#F4259C"/>
<path d="M71.563 137.95H65.3174V139.91H71.563V137.95Z" fill="#3BF4EF"/>
<path d="M78.8141 137.95H72.5685V139.91H78.8141V137.95Z" fill="#46DB21"/>
<path d="M6.29713 135.263H0.0515633V137.222H6.29713V135.263Z" fill="#46DB21"/>
<path d="M20.7992 135.263H14.5537V137.222H20.7992V135.263Z" fill="#F4259C"/>
<path d="M28.0503 135.263H21.8047V137.222H28.0503V135.263Z" fill="#F9E52D"/>
<path d="M35.3013 135.263H29.0558V137.222H35.3013V135.263Z" fill="#46DB21"/>
<path d="M42.5524 135.263H36.3068V137.222H42.5524V135.263Z" fill="#3BF4EF"/>
<path d="M49.8034 135.263H43.5578V137.222H49.8034V135.263Z" fill="#EF294B"/>
<path d="M64.3055 135.263H58.0599V137.222H64.3055V135.263Z" fill="#46DB21"/>
<path d="M71.563 135.263H65.3174V137.222H71.563V135.263Z" fill="#F9E52D"/>
<path d="M78.8141 135.263H72.5685V137.222H78.8141V135.263Z" fill="#3BF4EF"/>
<path d="M6.29713 132.575H0.0515633V134.534H6.29713V132.575Z" fill="#F4259C"/>
<path d="M28.0503 132.575H21.8047V134.534H28.0503V132.575Z" fill="#EF294B"/>
<path d="M49.8034 132.575H43.5578V134.534H49.8034V132.575Z" fill="#46DB21"/>
<path d="M71.563 132.575H65.3174V134.534H71.563V132.575Z" fill="#F4259C"/>
<path d="M8.46278 148.888H3.89945V143.184H8.44989V144.331H5.03384V145.479H8.43055V146.613H5.03384V147.76H8.46278V148.895V148.888Z" fill="#1C1C1C"/>
<path d="M21.8498 143.178L19.5295 148.882H18.3951L16.1392 143.178H17.4476L18.9945 147.386L20.6188 143.178H21.8498Z" fill="#1C1C1C"/>
<path d="M34.2765 148.888H29.7132V143.184H34.2636V144.331H30.8476V145.479H34.2443V146.613H30.8476V147.76H34.2765V148.895V148.888Z" fill="#1C1C1C"/>
<path d="M48.0567 148.888H47.3542L43.5127 145.015V148.888H42.359V143.184H43.3194L46.9288 146.903V143.184H48.0567V148.888Z" fill="#1C1C1C"/>
<path d="M61.6951 144.325H59.407V148.888H58.2791V144.325H55.991V143.178H61.6951V144.325Z" fill="#1C1C1C"/>
<path d="M74.8501 147.747C74.8501 148.115 74.7535 148.398 74.5537 148.592C74.3538 148.785 74.0703 148.882 73.6964 148.882H69.6165V147.747H73.6964V146.6H70.6735C70.3319 146.6 70.0612 146.503 69.8485 146.316C69.6423 146.123 69.5327 145.84 69.5327 145.466V144.318C69.5327 143.957 69.6358 143.674 69.8421 143.474C70.0483 143.274 70.3255 143.171 70.6671 143.171H74.5665V144.318H70.6671V145.466H73.69C74.038 145.466 74.3216 145.569 74.5279 145.775C74.7341 145.981 74.8437 146.258 74.8437 146.6V147.747H74.8501Z" fill="#1C1C1C"/>
<path d="M79.3684 51.8144C77.4283 57.3574 74.2572 62.5653 69.8485 67.0126C54.0058 82.9713 28.2372 83.068 12.2591 67.2253C-3.69965 51.4019 -3.81566 25.6139 12.0271 9.65517C16.4357 5.20786 21.6242 1.97873 27.1221 0C27.0641 0.0773445 27.0061 0.154689 26.9481 0.232034C24.95 1.58556 23.068 3.13245 21.3277 4.89204C6.74186 19.6004 6.85788 43.3516 21.5404 57.9375C36.2488 72.504 60 72.4267 74.5859 57.7248C76.4099 55.8814 77.9955 53.9091 79.3232 51.8337C80.2062 50.4479 80.2191 50.4415 79.3619 51.8144H79.3684Z" fill="#E5E5E5"/>
<path d="M79.3297 51.8337C77.9955 53.9091 76.4099 55.8879 74.5923 57.7248C60.0064 72.4331 36.2488 72.5105 21.5469 57.9375C6.85788 43.3516 6.74186 19.594 21.3342 4.89206C23.0744 3.13247 24.9565 1.58558 26.9546 0.232056C16.281 14.8179 17.5765 35.4367 30.8089 48.5595C44.0864 61.7209 64.8211 62.8167 79.3297 51.8273V51.8337Z" fill="white"/>
<path d="M12.6072 47.6442C14.8498 47.6442 16.6677 45.8263 16.6677 43.5837C16.6677 41.3411 14.8498 39.5231 12.6072 39.5231C10.3646 39.5231 8.54657 41.3411 8.54657 43.5837C8.54657 45.8263 10.3646 47.6442 12.6072 47.6442Z" fill="url(#paint0_linear_83_1245)"/>
<path d="M12.6072 47.786C10.2933 47.786 8.40477 45.9039 8.40477 43.5836C8.40477 41.2633 10.2868 39.3812 12.6072 39.3812C14.9275 39.3812 16.8095 41.2633 16.8095 43.5836C16.8095 45.9039 14.9275 47.786 12.6072 47.786ZM12.6072 39.6648C10.448 39.6648 8.68837 41.4244 8.68837 43.5836C8.68837 45.7428 10.448 47.5024 12.6072 47.5024C14.7664 47.5024 16.5259 45.7428 16.5259 43.5836C16.5259 41.4244 14.7664 39.6648 12.6072 39.6648Z" fill="white"/>
<path d="M37.9504 71.6855C39.5344 71.6855 40.8186 70.4013 40.8186 68.8173C40.8186 67.2332 39.5344 65.9491 37.9504 65.9491C36.3663 65.9491 35.0822 67.2332 35.0822 68.8173C35.0822 70.4013 36.3663 71.6855 37.9504 71.6855Z" fill="url(#paint1_linear_83_1245)"/>
<path d="M37.9504 71.8272C36.2875 71.8272 34.9404 70.4737 34.9404 68.8172C34.9404 67.1608 36.2939 65.8073 37.9504 65.8073C39.6068 65.8073 40.9604 67.1608 40.9604 68.8172C40.9604 70.4737 39.6068 71.8272 37.9504 71.8272ZM37.9504 66.0844C36.4422 66.0844 35.2175 67.309 35.2175 68.8172C35.2175 70.3255 36.4422 71.5501 37.9504 71.5501C39.4586 71.5501 40.6832 70.3255 40.6832 68.8172C40.6832 67.309 39.4586 66.0844 37.9504 66.0844Z" fill="white"/>
<path d="M11.2021 29.3717C12.7398 29.3717 13.9865 28.125 13.9865 26.5873C13.9865 25.0495 12.7398 23.8029 11.2021 23.8029C9.66428 23.8029 8.41766 25.0495 8.41766 26.5873C8.41766 28.125 9.66428 29.3717 11.2021 29.3717Z" fill="url(#paint2_linear_83_1245)"/>
<path d="M11.2021 29.507C9.59072 29.507 8.28231 28.1986 8.28231 26.5808C8.28231 24.963 9.59072 23.661 11.2021 23.661C12.8134 23.661 14.1283 24.9694 14.1283 26.5808C14.1283 28.1921 12.8199 29.507 11.2021 29.507ZM11.2021 23.9446C9.74541 23.9446 8.55946 25.1306 8.55946 26.5872C8.55946 28.0439 9.74541 29.2298 11.2021 29.2298C12.6587 29.2298 13.8447 28.0439 13.8447 26.5872C13.8447 25.1306 12.6587 23.9446 11.2021 23.9446Z" fill="white"/>
<path d="M16.6677 63.7834C17.4758 63.7834 18.1308 63.1283 18.1308 62.3203C18.1308 61.5122 17.4758 60.8572 16.6677 60.8572C15.8597 60.8572 15.2046 61.5122 15.2046 62.3203C15.2046 63.1283 15.8597 63.7834 16.6677 63.7834Z" fill="url(#paint3_linear_83_1245)"/>
<path d="M34.747 60.9797C35.5551 60.9797 36.2101 60.3246 36.2101 59.5166C36.2101 58.7085 35.5551 58.0535 34.747 58.0535C33.939 58.0535 33.2839 58.7085 33.2839 59.5166C33.2839 60.3246 33.939 60.9797 34.747 60.9797Z" fill="url(#paint4_linear_83_1245)"/>
<path d="M34.7212 34.4764C35.5293 34.4764 36.1843 33.8213 36.1843 33.0133C36.1843 32.2052 35.5293 31.5502 34.7212 31.5502C33.9132 31.5502 33.2581 32.2052 33.2581 33.0133C33.2581 33.8213 33.9132 34.4764 34.7212 34.4764Z" fill="white"/>
<path d="M45.3744 27.3361C45.5039 26.5384 44.9622 25.7869 44.1646 25.6574C43.367 25.528 42.6155 26.0696 42.486 26.8672C42.3565 27.6648 42.8982 28.4164 43.6958 28.5458C44.4934 28.6753 45.2449 28.1337 45.3744 27.3361Z" fill="white"/>
<path d="M64.1766 36.9643C64.9847 36.9643 65.6397 36.3092 65.6397 35.5012C65.6397 34.6931 64.9847 34.0381 64.1766 34.0381C63.3686 34.0381 62.7135 34.6931 62.7135 35.5012C62.7135 36.3092 63.3686 36.9643 64.1766 36.9643Z" fill="white"/>
<path d="M21.9207 51.2794C23.1203 51.2794 24.0928 50.3069 24.0928 49.1073C24.0928 47.9077 23.1203 46.9352 21.9207 46.9352C20.7211 46.9352 19.7486 47.9077 19.7486 49.1073C19.7486 50.3069 20.7211 51.2794 21.9207 51.2794Z" fill="url(#paint5_linear_83_1245)"/>
<path d="M4.54399 38.3242C5.0815 38.3242 5.51724 37.8885 5.51724 37.3509C5.51724 36.8134 5.0815 36.3777 4.54399 36.3777C4.00648 36.3777 3.57074 36.8134 3.57074 37.3509C3.57074 37.8885 4.00648 38.3242 4.54399 38.3242Z" fill="url(#paint6_linear_83_1245)"/>
<path d="M16.049 15.282C16.5865 15.282 17.0222 14.8462 17.0222 14.3087C17.0222 13.7712 16.5865 13.3354 16.049 13.3354C15.5115 13.3354 15.0757 13.7712 15.0757 14.3087C15.0757 14.8462 15.5115 15.282 16.049 15.282Z" fill="url(#paint7_linear_83_1245)"/>
<path d="M51.1827 64.9371C51.7202 64.9371 52.156 64.5014 52.156 63.9638C52.156 63.4263 51.7202 62.9906 51.1827 62.9906C50.6452 62.9906 50.2095 63.4263 50.2095 63.9638C50.2095 64.5014 50.6452 64.9371 51.1827 64.9371Z" fill="url(#paint8_linear_83_1245)"/>
<path d="M49.3909 41.953C49.9284 41.953 50.3642 41.5172 50.3642 40.9797C50.3642 40.4422 49.9284 40.0065 49.3909 40.0065C48.8534 40.0065 48.4177 40.4422 48.4177 40.9797C48.4177 41.5172 48.8534 41.953 49.3909 41.953Z" fill="white"/>
<path d="M72.2591 44.5569C72.7966 44.5569 73.2324 44.1211 73.2324 43.5836C73.2324 43.0461 72.7966 42.6104 72.2591 42.6104C71.7216 42.6104 71.2859 43.0461 71.2859 43.5836C71.2859 44.1211 71.7216 44.5569 72.2591 44.5569Z" fill="white"/>
<path d="M37.2607 43.5836C37.7982 43.5836 38.234 43.1479 38.234 42.6103C38.234 42.0728 37.7982 41.6371 37.2607 41.6371C36.7232 41.6371 36.2875 42.0728 36.2875 42.6103C36.2875 43.1479 36.7232 43.5836 37.2607 43.5836Z" fill="white"/>
<path d="M60.8572 50.6606C61.3947 50.6606 61.8305 50.2249 61.8305 49.6874C61.8305 49.1498 61.3947 48.7141 60.8572 48.7141C60.3197 48.7141 59.884 49.1498 59.884 49.6874C59.884 50.2249 60.3197 50.6606 60.8572 50.6606Z" fill="white"/>
<path d="M50.4931 53.5675C50.874 53.5675 51.1827 53.2588 51.1827 52.8779C51.1827 52.497 50.874 52.1882 50.4931 52.1882C50.1122 52.1882 49.8034 52.497 49.8034 52.8779C49.8034 53.2588 50.1122 53.5675 50.4931 53.5675Z" fill="white"/>
<path d="M44.892 7.36063C45.2729 7.36063 45.5817 7.05186 45.5817 6.67098C45.5817 6.29009 45.2729 5.98132 44.892 5.98132C44.5112 5.98132 44.2024 6.29009 44.2024 6.67098C44.2024 7.05186 44.5112 7.36063 44.892 7.36063Z" fill="white"/>
<path d="M27.0641 22.4106C27.445 22.4106 27.7538 22.1018 27.7538 21.7209C27.7538 21.34 27.445 21.0312 27.0641 21.0312C26.6832 21.0312 26.3745 21.34 26.3745 21.7209C26.3745 22.1018 26.6832 22.4106 27.0641 22.4106Z" fill="white"/>
<path d="M58.1308 25.1176C58.5117 25.1176 58.8205 24.8088 58.8205 24.4279C58.8205 24.0471 58.5117 23.7383 58.1308 23.7383C57.75 23.7383 57.4412 24.0471 57.4412 24.4279C57.4412 24.8088 57.75 25.1176 58.1308 25.1176Z" fill="white"/>
<path d="M60.1676 11.099C60.5164 11.099 60.7992 10.8162 60.7992 10.4673C60.7992 10.1185 60.5164 9.83569 60.1676 9.83569C59.8187 9.83569 59.5359 10.1185 59.5359 10.4673C59.5359 10.8162 59.8187 11.099 60.1676 11.099Z" fill="white"/>
<path d="M28.6755 11.4405C29.213 11.4405 29.6487 11.0048 29.6487 10.4673C29.6487 9.92976 29.213 9.49402 28.6755 9.49402C28.138 9.49402 27.7022 9.92976 27.7022 10.4673C27.7022 11.0048 28.138 11.4405 28.6755 11.4405Z" fill="white"/>
<path d="M51.1827 75.7138C52.1937 75.7138 53.0132 74.8943 53.0132 73.8833C53.0132 72.8724 52.1937 72.0529 51.1827 72.0529C50.1718 72.0529 49.3522 72.8724 49.3522 73.8833C49.3522 74.8943 50.1718 75.7138 51.1827 75.7138Z" fill="url(#paint9_linear_83_1245)"/>
<path d="M36.1843 33.0132L35.5978 32.4202V22.6426C35.5978 22.5395 35.6558 22.4428 35.7461 22.3912L44.95 16.9771C45.0403 16.9191 45.1563 16.9191 45.2465 16.9771C45.3368 17.0287 45.3948 17.1253 45.3948 17.2285V27.2124L44.8082 26.4454V17.7441L36.1908 22.8102V33.0132H36.1843Z" fill="white"/>
<path d="M0.0773468 100.567V107.715H2.93909V101.998H11.4599V100.567H0.0773468Z" fill="white"/>
<path d="M25.0854 104.879V101.998H33.6062V100.567H22.2301V107.715H33.6642V104.873H25.0854V104.879Z" fill="white"/>
<path d="M47.6635 104.879V101.998H56.1843V100.567H44.8082V107.715H56.2423V104.873H47.6635V104.879Z" fill="white"/>
<path d="M70.261 104.879V100.574H67.38V107.722H78.814V104.879H70.261Z" fill="white"/>
<path d="M0.0386734 120.142V127.328H2.90042V121.573H11.4599V120.142H0.0386734Z" fill="white"/>
<path d="M28.8624 121.573H32.3687C33.7222 121.573 34.6181 121.102 35.0113 120.142H21.3858V127.328H24.2668V121.573H24.6987L31.4341 127.328H35.7589L28.8688 121.573H28.8624Z" fill="white"/>
<path d="M48.4306 124.473V121.573H56.99V120.142H45.5753V127.328H57.0674V124.467H48.4306V124.473Z" fill="white"/>
<path d="M70.203 124.473V121.573H78.7625V120.142H67.3477V127.328H78.8205V124.467H70.203V124.473Z" fill="white"/>
<path d="M70.261 93.4193H67.38V100.567H70.261V93.4193Z" fill="#DBDBDB"/>
<path d="M22.2301 93.4193H33.6449V96.2811H25.0854V99.1621H33.6062V100.567H22.2301V93.4193Z" fill="#DBDBDB"/>
<path d="M0.0773468 93.4193H11.5179V96.2811H2.93909V99.1621H11.4599V100.567H0.0773468V93.4193Z" fill="#DBDBDB"/>
<path d="M44.8018 93.4193H56.223V96.2811H47.6636V99.1621H56.1843V100.567H44.8018V93.4193Z" fill="#DBDBDB"/>
<path d="M45.5688 112.955H57.0416V115.836H48.4306V118.717H56.9836V120.142H45.5688V112.955Z" fill="#DBDBDB"/>
<path d="M0.0386734 112.955H11.5372V115.836H2.90042V118.717H11.4599V120.142H0.0386734V112.955Z" fill="#CCCCCC"/>
<path d="M70.203 115.836V118.717H78.7625V120.142H67.3413V112.955H78.8012V115.836H70.203Z" fill="#DBDBDB"/>
<path d="M35.0306 114.721C34.8953 114.367 34.6761 114.057 34.4054 113.8C34.1283 113.548 33.8382 113.329 33.4837 113.174C33.1292 113.039 32.7618 112.962 32.3687 112.962H21.3858V115.843H32.3687V118.84H21.3858V120.155H35.0113C35.1853 119.762 35.2626 119.291 35.2626 118.724V115.843C35.2626 115.45 35.1853 115.082 35.0306 114.728V114.721Z" fill="#DBDBDB"/>
</g>
<defs>
<linearGradient id="paint0_linear_83_1245" x1="8.84306" y1="45.8138" x2="16.8031" y2="41.1022" gradientUnits="userSpaceOnUse">
<stop stop-color="white"/>
<stop offset="1" stop-color="#E5E5E5"/>
</linearGradient>
<linearGradient id="paint1_linear_83_1245" x1="35.2884" y1="70.39" x2="40.9152" y2="67.0641" gradientUnits="userSpaceOnUse">
<stop stop-color="white"/>
<stop offset="1" stop-color="#E5E5E5"/>
</linearGradient>
<linearGradient id="paint2_linear_83_1245" x1="8.62391" y1="28.1084" x2="14.0767" y2="24.8857" gradientUnits="userSpaceOnUse">
<stop stop-color="white"/>
<stop offset="1" stop-color="#E5E5E5"/>
</linearGradient>
<linearGradient id="paint3_linear_83_1245" x1="17.0582" y1="60.7924" x2="16.2287" y2="64.0192" gradientUnits="userSpaceOnUse">
<stop stop-color="white"/>
<stop offset="1" stop-color="#E5E5E5"/>
</linearGradient>
<linearGradient id="paint4_linear_83_1245" x1="35.1381" y1="57.9895" x2="34.3086" y2="61.2163" gradientUnits="userSpaceOnUse">
<stop stop-color="white"/>
<stop offset="1" stop-color="#E5E5E5"/>
</linearGradient>
<linearGradient id="paint5_linear_83_1245" x1="22.5045" y1="46.8417" x2="21.274" y2="51.6363" gradientUnits="userSpaceOnUse">
<stop stop-color="white"/>
<stop offset="1" stop-color="#E5E5E5"/>
</linearGradient>
<linearGradient id="paint6_linear_83_1245" x1="4.79836" y1="36.3366" x2="4.25145" y2="38.4877" gradientUnits="userSpaceOnUse">
<stop stop-color="white"/>
<stop offset="1" stop-color="#E5E5E5"/>
</linearGradient>
<linearGradient id="paint7_linear_83_1245" x1="16.3062" y1="13.298" x2="15.7548" y2="15.4446" gradientUnits="userSpaceOnUse">
<stop stop-color="white"/>
<stop offset="1" stop-color="#E5E5E5"/>
</linearGradient>
<linearGradient id="paint8_linear_83_1245" x1="51.4451" y1="62.9482" x2="50.8936" y2="65.0948" gradientUnits="userSpaceOnUse">
<stop stop-color="white"/>
<stop offset="1" stop-color="#E5E5E5"/>
</linearGradient>
<linearGradient id="paint9_linear_83_1245" x1="51.673" y1="71.9722" x2="50.6384" y2="76.0148" gradientUnits="userSpaceOnUse">
<stop stop-color="white"/>
<stop offset="1" stop-color="#E5E5E5"/>
</linearGradient>
<clipPath id="clip0_83_1245">
<rect width="80" height="151.337" fill="white"/>
</clipPath>
</defs>
</svg>
